<svg width="25" height="25" viewBox="0 0 35 35" fill="none" xmlns="http://www.w3.org/2000/svg">
<circle cx="17.5" cy="17.5" r="17" fill="#4AA8FF"/>
<path d="M16.3848 25C16.1989 25 16.0316 24.9345 15.8829 24.8034C15.7528 24.6536 15.6877 24.485 15.6877 24.2978V19.1573H10.7249C10.5204 19.1573 10.3439 19.0918 10.1952 18.9607C10.0651 18.8296 10 18.661 10 18.4551V16.4045C10 16.1985 10.0651 16.03 10.1952 15.8989C10.3439 15.7491 10.5204 15.6742 10.7249 15.6742H15.6877V10.7022C15.6877 10.4963 15.7528 10.3277 15.8829 10.1966C16.0316 10.0655 16.1989 10 16.3848 10H18.671C18.8755 10 19.0428 10.0655 19.1729 10.1966C19.303 10.3277 19.368 10.4963 19.368 10.7022V15.6742H24.303C24.5074 15.6742 24.6747 15.7491 24.8048 15.8989C24.9349 16.03 25 16.1985 25 16.4045V18.4551C25 18.661 24.9349 18.8296 24.8048 18.9607C24.6747 19.0918 24.5074 19.1573 24.303 19.1573H19.368V24.2978C19.368 24.485 19.303 24.6536 19.1729 24.8034C19.0428 24.9345 18.8755 25 18.671 25H16.3848Z" fill="white"/>
</svg>
